<?xml version="1.0" encoding="UTF-8"?>
<svg version="1.1" xmlns="http://www.w3.org/2000/svg" width="105" height="132">
<path d="M0 0 C34.65 0 69.3 0 105 0 C105 43.56 105 87.12 105 132 C70.35 132 35.7 132 0 132 C0 88.44 0 44.88 0 0 Z " fill="#FBFDFC" transform="translate(0,0)"/>
<path d="M0 0 C2.475 0.99 2.475 0.99 5 2 C4.67 4.31 4.34 6.62 4 9 C4.66 9 5.32 9 6 9 C6 10.32 6 11.64 6 13 C7.65 12.67 9.3 12.34 11 12 C11 13.32 11 14.64 11 16 C11.66 16 12.32 16 13 16 C13 16.66 13 17.32 13 18 C10.03 18.66 7.06 19.32 4 20 C4.99 20 5.98 20 7 20 C9.92313485 20.07900364 11.51074406 20.5407456 13.65625 22.5546875 C18 27.49262972 18 27.49262972 18 30 C16.02 30 14.04 30 12 30 C13.24735567 30.6509259 14.49801832 31.29551669 15.75 31.9375 C16.44609375 32.29714844 17.1421875 32.65679687 17.859375 33.02734375 C19.90224433 33.95558182 21.81115376 34.53166578 24 35 C24 35.66 24 36.32 24 37 C22.68 37 21.36 37 20 37 C20 37.66 20 38.32 20 39 C21.32 39.66 22.64 40.32 24 41 C21.33333333 41 18.66666667 41 16 41 C16.55429688 41.17015625 17.10859375 41.3403125 17.6796875 41.515625 C23.71865278 43.53577709 23.71865278 43.53577709 25.25 46.0625 C25.4975 46.701875 25.745 47.34125 26 48 C28.0335948 49.26804566 28.0335948 49.26804566 30 50 C30 50.66 30 51.32 30 52 C28.02 52 26.04 52 24 52 C26.97 53.65 29.94 55.3 33 57 C33 57.33 33 57.66 33 58 C22.41430867 58.86140345 22.41430867 58.86140345 17.8125 55.5 C16.884375 54.675 15.95625 53.85 15 53 C19.06734974 57.59216906 23.56385928 60.2167907 29 63 C29 63.99 29 64.98 29 66 C30.093125 66.103125 31.18625 66.20625 32.3125 66.3125 C36 67 36 67 37.9375 68.4375 C39 70 39 70 39 72 C34.71 72 30.42 72 26 72 C28.38291387 75.5743708 30.28773658 76.35051219 34.125 78.1875 C35.22070312 78.71730469 36.31640625 79.24710937 37.4453125 79.79296875 C38.28835937 80.19128906 39.13140625 80.58960937 40 81 C37 83 37 83 33 83 C34.13304992 86.39914975 35.12518475 87.05254451 38 89 C36.02 89 34.04 89 32 89 C34.29308963 90.14654482 35.79909656 90.19729117 38.3515625 90.31640625 C39.20234375 90.35830078 40.053125 90.40019531 40.9296875 90.44335938 C41.81914063 90.48267578 42.70859375 90.52199219 43.625 90.5625 C44.97078125 90.62727539 44.97078125 90.62727539 46.34375 90.69335938 C48.56234283 90.79956861 50.7810488 90.90161194 53 91 C52.67 91.66 52.34 92.32 52 93 C49.27734375 93.8515625 49.27734375 93.8515625 45.9375 94.625 C44.83277344 94.88539062 43.72804688 95.14578125 42.58984375 95.4140625 C41.30787109 95.70410156 41.30787109 95.70410156 40 96 C40.99 96.99 41.98 97.98 43 99 C40.31243045 99.02720824 37.62514202 99.0469388 34.9375 99.0625 C34.18533203 99.07087891 33.43316406 99.07925781 32.65820312 99.08789062 C27.99366882 99.10808341 23.60076827 98.77595959 19 98 C25.18720393 100.64398953 31.31922589 102.74774395 37.84765625 104.38671875 C40 105 40 105 41 106 C43.32817964 106.36760731 45.6618385 106.70241581 48 107 C47.67 107.66 47.34 108.32 47 109 C44.27734375 109.6328125 44.27734375 109.6328125 40.9375 110.125 C39.83277344 110.29257813 38.72804688 110.46015625 37.58984375 110.6328125 C36.73519531 110.75398438 35.88054687 110.87515625 35 111 C36.98 111.495 36.98 111.495 39 112 C39 112.66 39 113.32 39 114 C29.81639833 114.54448231 22.62553301 114.78631231 15 109 C16.65 110.65 18.3 112.3 20 114 C19.67 114.66 19.34 115.32 19 116 C17.35 115.34 15.7 114.68 14 114 C13.67 114.33 13.34 114.66 13 115 C10.5 115.125 10.5 115.125 8 115 C7.67 114.67 7.34 114.34 7 114 C7 117.63 7 121.26 7 125 C11.62 125 16.24 125 21 125 C21 125.33 21 125.66 21 126 C8.79 126 -3.42 126 -16 126 C-16 125.67 -16 125.34 -16 125 C-11.38 125 -6.76 125 -2 125 C-2.33 121.37 -2.66 117.74 -3 114 C-5.475 114.99 -5.475 114.99 -8 116 C-8.33 115.34 -8.66 114.68 -9 114 C-9.99 114.66 -10.98 115.32 -12 116 C-12.99 116 -13.98 116 -15 116 C-15 113 -15 113 -13 110.8125 C-12.34 110.214375 -11.68 109.61625 -11 109 C-11.47308594 109.34933594 -11.94617187 109.69867188 -12.43359375 110.05859375 C-17.63456386 113.63742893 -21.72291109 114.86549095 -28 115 C-29.051875 115.02320312 -29.051875 115.02320312 -30.125 115.046875 C-31.75002228 115.05998002 -33.37529259 115.03456824 -35 115 C-35 114.34 -35 113.68 -35 113 C-33.02 112.505 -33.02 112.505 -31 112 C-32.28197266 111.81824219 -32.28197266 111.81824219 -33.58984375 111.6328125 C-34.69457031 111.46523437 -35.79929687 111.29765625 -36.9375 111.125 C-38.03964844 110.96257812 -39.14179687 110.80015625 -40.27734375 110.6328125 C-41.17582031 110.42398438 -42.07429688 110.21515625 -43 110 C-43.33 109.34 -43.66 108.68 -44 108 C-43.319375 107.85304688 -42.63875 107.70609375 -41.9375 107.5546875 C-32.92671294 105.46974475 -24.61133998 102.34060603 -16 99 C-23.59 99.33 -31.18 99.66 -39 100 C-39 99.34 -39 98.68 -39 98 C-38.01 97.505 -38.01 97.505 -37 97 C-40.96 96.01 -44.92 95.02 -49 94 C-49 93.34 -49 92.68 -49 92 C-47.87980469 91.93941406 -46.75960937 91.87882812 -45.60546875 91.81640625 C-44.13280016 91.73198576 -42.66014456 91.64733851 -41.1875 91.5625 C-40.44951172 91.52318359 -39.71152344 91.48386719 -38.95117188 91.44335938 C-35.76928658 91.25618965 -33.03837622 91.01279207 -30 90 C-31.485 89.01 -31.485 89.01 -33 88 C-31.02 87.01 -31.02 87.01 -29 86 C-31.64 85.01 -34.28 84.02 -37 83 C-37 82.34 -37 81.68 -37 81 C-36.14535156 80.60167969 -35.29070313 80.20335938 -34.41015625 79.79296875 C-33.30542969 79.26316406 -32.20070313 78.73335938 -31.0625 78.1875 C-29.96035156 77.66542969 -28.85820312 77.14335938 -27.72265625 76.60546875 C-24.71259223 75.23205279 -24.71259223 75.23205279 -24 72 C-26.97 72 -29.94 72 -33 72 C-33 71.34 -33 70.68 -33 70 C-34.32 70 -35.64 70 -37 70 C-37 69.34 -37 68.68 -37 68 C-36.38511719 67.81824219 -35.77023438 67.63648437 -35.13671875 67.44921875 C-34.32847656 67.19785156 -33.52023438 66.94648437 -32.6875 66.6875 C-31.88699219 66.44386719 -31.08648438 66.20023437 -30.26171875 65.94921875 C-27.83929225 64.93255271 -26.81536893 63.85241727 -25 62 C-23.30015988 61.04969568 -21.567809 60.15596017 -19.8125 59.3125 C-18.91144531 58.87550781 -18.01039062 58.43851563 -17.08203125 57.98828125 C-16.39496094 57.66214844 -15.70789062 57.33601563 -15 57 C-17.38564077 57.57584432 -19.66682784 58.22227595 -22 59 C-23.56118428 59.06740865 -25.1250252 59.08514456 -26.6875 59.0625 C-27.89986328 59.04896484 -27.89986328 59.04896484 -29.13671875 59.03515625 C-29.75160156 59.02355469 -30.36648437 59.01195312 -31 59 C-31 58.34 -31 57.68 -31 57 C-26.05 54.525 -26.05 54.525 -21 52 C-23.31 52 -25.62 52 -28 52 C-27.195625 51.401875 -26.39125 50.80375 -25.5625 50.1875 C-22.77672016 48.19052724 -22.77672016 48.19052724 -22 45 C-17.66666667 42 -17.66666667 42 -15 42 C-15.33 41.34 -15.66 40.68 -16 40 C-16.5775 40.350625 -17.155 40.70125 -17.75 41.0625 C-20.35801776 42.14917407 -21.39417629 41.93065133 -24 41 C-22.35 40.34 -20.7 39.68 -19 39 C-19 38.34 -19 37.68 -19 37 C-19.99 37 -20.98 37 -22 37 C-22 36.34 -22 35.68 -22 35 C-19.36 34.01 -16.72 33.02 -14 32 C-16.97 32 -19.94 32 -23 32 C-18.48746518 27.2367688 -18.48746518 27.2367688 -15.8125 25.9375 C-13.79649305 25.14669339 -13.79649305 25.14669339 -13.1875 22.9375 C-12.795625 22.298125 -12.40375 21.65875 -12 21 C-8.375 20.25 -8.375 20.25 -5 20 C-5 19.34 -5 18.68 -5 18 C-6.98 18 -8.96 18 -11 18 C-11 17.34 -11 16.68 -11 16 C-9.515 15.13375 -9.515 15.13375 -8 14.25 C-7.01 13.5075 -6.02 12.765 -5 12 C-4.49830585 8.83073436 -4.49830585 8.83073436 -5 6 C-3.68 6 -2.36 6 -1 6 C-0.67 4.02 -0.34 2.04 0 0 Z " fill="#076C3D" transform="translate(49,4)"/>
<path d="M0 0 C-2.39509338 2.89932357 -4.31245243 3.50168276 -8 4 C-8 3.34 -8 2.68 -8 2 C-9.32 1.67 -10.64 1.34 -12 1 C-7.93631321 0.22596442 -4.13574827 -0.0984702 0 0 Z " fill="#BFD8CC" transform="translate(34,102)"/>
<path d="M0 0 C6.0546875 0.390625 6.0546875 0.390625 8 1 C9.2578125 3.046875 9.2578125 3.046875 10 5 C8.51800098 4.55090939 7.03944764 4.09043436 5.5625 3.625 C4.73878906 3.36976562 3.91507812 3.11453125 3.06640625 2.8515625 C1 2 1 2 0 0 Z " fill="#E2EDE8" transform="translate(67,101)"/>
<path d="M0 0 C0 0.99 0 1.98 0 3 C-0.639375 3.268125 -1.27875 3.53625 -1.9375 3.8125 C-4.33131686 4.88667752 -4.33131686 4.88667752 -5 8 C-5.33 6.68 -5.66 5.36 -6 4 C-4.02 2.68 -2.04 1.36 0 0 Z " fill="#C5DCD2" transform="translate(38,112)"/>
<path d="M0 0 C4.75 1.875 4.75 1.875 7 3 C6.67 4.65 6.34 6.3 6 8 C3.87961365 5.38485683 1.86908256 2.80362384 0 0 Z " fill="#D6E6DF" transform="translate(63,112)"/>
<path d="M0 0 C0.66 0.33 1.32 0.66 2 1 C-0.31 2.65 -2.62 4.3 -5 6 C-5.66 5.01 -6.32 4.02 -7 3 C-4.69631264 1.93347808 -2.35981813 0.93578995 0 0 Z " fill="#CADFD5" transform="translate(34,59)"/>
</svg>
